<?xml version="1.0" encoding="UTF-8"?>
<svg width="33px" height="36px" viewBox="0 0 33 36" version="1.1" xmlns="http://www.w3.org/2000/svg" xmlns:xlink="http://www.w3.org/1999/xlink">
    <title>Group</title>
    <g id="Symbols" stroke="none" stroke-width="1" fill="none" fill-rule="evenodd">
        <g id="Logo" transform="translate(0.000000, -6.000000)">
            <g id="Group" transform="translate(0.000000, 6.000000)">
                <path d="M32.7577151,27.6915705 L17.0839764,35.8739126 C16.7104002,36.0420291 16.2874063,36.0420291 15.9138301,35.8739126 L0.239293721,27.6915705 C-0.0797645737,27.5242767 -0.0797645737,27.2499148 0.239293721,27.0817845 L3.99301456,25.1261194 C4.36714742,24.9580156 4.79062328,24.9580156 5.16475614,25.1261194 L15.9138301,30.7304633 C16.2872314,30.8994699 16.7105751,30.8994699 17.0839764,30.7304633 L27.8330503,25.1261194 C28.2068952,24.9579602 28.6301494,24.9579602 29.0039943,25.1261194 L32.7577151,27.0859668 C33.0807616,27.2499148 33.0807616,27.5242767 32.7577151,27.6915705 Z M32.7577151,17.085174 L29.0039943,15.1260714 C28.6301494,14.9579762 28.2068952,14.9579762 27.8330503,15.1260714 L17.0839764,20.7349745 C16.7102471,20.9022444 16.2875593,20.9022444 15.9138301,20.7349745 L5.16475614,15.1260714 C4.79062328,14.9580316 4.36714742,14.9580316 3.99301456,15.1260714 L0.239293721,17.085174 C-0.0797645737,17.2524043 -0.0797645737,17.527498 0.239293721,17.6964006 L15.9138301,25.8739605 C16.2874063,26.0420132 16.7104002,26.0420132 17.0839764,25.8739605 L32.7577151,17.6964006 C33.0807616,17.527498 33.0807616,17.2532404 32.7577151,17.085174 L32.7577151,17.085174 Z" id="Shape-Copy" fill="#C79428" fill-rule="nonzero"></path>
                <path d="M0.242284892,7.76611007 L15.9160236,14.890507 C16.2921127,15.0364977 16.7100808,15.0364977 17.0861699,14.890507 L32.7607063,7.76611007 C33.0797646,7.61934544 33.0797646,7.38026113 32.7607063,7.23428556 L17.0861699,0.110677714 C16.7103845,-0.0368925715 16.291809,-0.0368925715 15.9160236,0.110677714 L0.242284892,7.23428556 C-0.0807616308,7.38026113 -0.0807616308,7.61934544 0.242284892,7.76611007 L0.242284892,7.76611007 Z" id="Path" fill="#FFBC2C"></path>
            </g>
        </g>
    </g>
</svg>